<svg width="1276" height="806" viewBox="0 0 1276 806" fill="none" xmlns="http://www.w3.org/2000/svg">
<mask id="mask0_34_6" style="mask-type:alpha" maskUnits="userSpaceOnUse" x="65" y="421" width="269" height="269">
<circle cx="199.229" cy="555.229" r="134" transform="rotate(-109.987 199.229 555.229)" fill="#C4C4C4"/>
</mask>
<g mask="url(#mask0_34_6)">
<line x1="-83.695" y1="598.691" x2="198.135" y2="326.281" stroke="#2E2E30" stroke-width="2"/>
<line x1="-67.0152" y1="615.948" x2="214.815" y2="343.538" stroke="#2E2E30" stroke-width="2"/>
<line x1="-50.3356" y1="633.204" x2="231.495" y2="360.794" stroke="#2E2E30" stroke-width="2"/>
<line x1="-33.6558" y1="650.461" x2="248.174" y2="378.05" stroke="#2E2E30" stroke-width="2"/>
<line x1="-16.9761" y1="667.717" x2="264.854" y2="395.307" stroke="#2E2E30" stroke-width="2"/>
<line x1="-0.296307" y1="684.974" x2="281.534" y2="412.563" stroke="#2E2E30" stroke-width="2"/>
<line x1="16.3834" y1="702.23" x2="298.213" y2="429.82" stroke="#2E2E30" stroke-width="2"/>
<line x1="33.0631" y1="719.487" x2="314.893" y2="447.076" stroke="#2E2E30" stroke-width="2"/>
<line x1="49.7429" y1="736.743" x2="331.573" y2="464.333" stroke="#2E2E30" stroke-width="2"/>
<line x1="66.4226" y1="754" x2="348.253" y2="481.589" stroke="#2E2E30" stroke-width="2"/>
<line x1="83.1023" y1="771.256" x2="364.932" y2="498.846" stroke="#2E2E30" stroke-width="2"/>
<line x1="99.7821" y1="788.513" x2="381.612" y2="516.102" stroke="#2E2E30" stroke-width="2"/>
<line x1="116.462" y1="805.769" x2="398.292" y2="533.359" stroke="#2E2E30" stroke-width="2"/>
</g>
<path d="M30.7741 36.7497C30.4408 34.4645 32.7063 32.6754 34.852 33.5293L107.27 62.3495C109.416 63.2034 109.833 66.0599 108.02 67.4912L46.8522 115.797C45.0398 117.228 42.3576 116.161 42.0243 113.876L30.7741 36.7497Z" fill="#2E2E30"/>
<path d="M1156.09 241.328L1169.88 225.774C1170.39 225.198 1171.33 225.391 1171.58 226.121L1178.15 245.838C1178.4 246.569 1177.76 247.289 1177 247.135L1156.64 242.971C1155.89 242.816 1155.58 241.904 1156.09 241.328Z" stroke="#2E2E30" stroke-width="4"/>
<path d="M1250.65 121.747L1265.34 136.444C1265.89 136.988 1265.64 137.918 1264.9 138.117L1244.82 143.497C1244.08 143.696 1243.39 143.015 1243.59 142.272L1248.97 122.195C1249.17 121.452 1250.1 121.203 1250.65 121.747Z" stroke="#2E2E30" stroke-width="4"/>
</svg>
